<?xml version="1.0" standalone="no"?>
<!DOCTYPE svg PUBLIC "-//W3C//DTD SVG 20010904//EN"
 "http://www.w3.org/TR/2001/REC-SVG-20010904/DTD/svg10.dtd">
<svg version="1.0" xmlns="http://www.w3.org/2000/svg"
 width="260.000000pt" height="260.000000pt" viewBox="0 0 260.000000 260.000000"
 preserveAspectRatio="xMidYMid meet">
<metadata>
Created by potrace 1.11, written by Peter Selinger 2001-2013
</metadata>
<g transform="translate(0.000000,260.000000) scale(0.100000,-0.100000)"
fill="#000000" stroke="none">
<path d="M500 1296 l0 -496 95 0 95 0 0 190 0 190 53 0 c28 0 57 -4 63 -8 6
-4 63 -86 127 -183 63 -97 122 -179 132 -182 9 -4 59 -7 111 -7 l95 0 -127
188 c-69 103 -137 197 -151 209 l-24 23 45 21 c67 31 131 105 152 175 45 157
-29 296 -186 345 -54 17 -101 22 -272 26 l-208 6 0 -497z m422 320 c99 -48
100 -206 1 -267 -31 -19 -55 -24 -135 -27 l-98 -4 0 162 0 162 98 -4 c66 -3
109 -10 134 -22z"/>
<path d="M1388 1784 c-5 -4 -8 -227 -8 -496 l0 -490 243 4 c225 3 246 5 301
27 114 45 175 126 184 242 3 52 0 75 -16 112 -22 50 -83 101 -133 112 -37 8
-37 19 0 34 36 16 97 78 110 114 17 45 13 147 -8 193 -25 55 -83 101 -161 125
-55 18 -99 22 -285 26 -121 3 -223 2 -227 -3z m440 -164 c52 -24 77 -72 69
-138 -10 -88 -75 -122 -236 -122 l-91 0 0 140 0 140 108 0 c84 0 116 -5 150
-20z m3 -400 c110 -31 131 -175 36 -244 -25 -18 -46 -21 -163 -24 l-134 -4 0
141 0 141 113 0 c61 0 128 -5 148 -10z"/>
</g>
</svg>
